<svg version="1.0" xmlns="http://www.w3.org/2000/svg" width="88" height="88" viewBox="0 0 66 66"><path d="M28.9 5.7c-8.1 8.9-10.5 13.7-7.4 14.9 2.1.9 1.9 1.6-2.1 6.8-3.8 4.9-3.9 7.4-.4 8.3 1.1.3 2 .7 2 1 0 .2-1.6 2.5-3.5 5-4 5.2-4.1 5.6-1.9 7.7 1 1.1 3.4 1.6 7.5 1.6 3.2 0 5.9.4 5.9.8 0 .5-.7 3.1-1.5 5.8-.8 2.7-1.5 5-1.5 5.1 0 .2 3.2.3 7 .3 3.9 0 7-.2 7-.4s-.7-2.3-1.5-4.6c-2.4-6.8-2.2-7 4.4-7 4.1 0 6.5-.5 7.5-1.6 2.2-2.1 2.1-2.5-1.9-7.7-1.9-2.5-3.5-4.8-3.5-5 0-.3.9-.7 2-1 3.5-.9 3.4-3.4-.4-8.3-4-5.2-4.2-5.9-2.1-6.8.8-.3 1.5-1.3 1.5-2.2C46 15.9 35.2 3 33.1 3c-.9 0-2.9 1.2-4.2 2.7z" fill="#414141" stroke="currentColor" stroke-width=".1"/></svg>