<?xml version="1.0" standalone="no"?>
<!DOCTYPE svg PUBLIC "-//W3C//DTD SVG 20010904//EN"
 "http://www.w3.org/TR/2001/REC-SVG-20010904/DTD/svg10.dtd">
<svg version="1.0" xmlns="http://www.w3.org/2000/svg"
 width="66.000000pt" height="66.000000pt" viewBox="0 0 66.000000 66.000000"
 preserveAspectRatio="xMidYMid meet">

<g transform="translate(0.000000,66.000000) scale(0.100000,-0.100000)"
fill="#414141" stroke="currentColor">
<path d="M289 603 c-81 -89 -105 -137 -74 -149 21 -9 19 -16 -21 -68 -38 -49
-39 -74 -4 -83 11 -3 20 -7 20 -10 0 -2 -16 -25 -35 -50 -40 -52 -41 -56 -19
-77 10 -11 34 -16 75 -16 32 0 59 -4 59 -8 0 -5 -7 -31 -15 -58 -8 -27 -15
-50 -15 -51 0 -2 32 -3 70 -3 39 0 70 2 70 4 0 2 -7 23 -15 46 -24 68 -22 70
44 70 41 0 65 5 75 16 22 21 21 25 -19 77 -19 25 -35 48 -35 50 0 3 9 7 20 10
35 9 34 34 -4 83 -40 52 -42 59 -21 68 8 3 15 13 15 22 0 25 -108 154 -129
154 -9 0 -29 -12 -42 -27z"/>
</g>
</svg>
